<svg xmlns="http://www.w3.org/2000/svg" width="74" height="75" viewBox="0 0 74 75">
    <g fill="none" fill-rule="nonzero">
        <g transform="translate(-1)">
            <path fill="#545E73" d="M65.19 10.717C64.22 4.74 50.348 0 33.375 0S2.531 4.74 1.558 10.717H1.5v49.566h.06C2.53 66.259 16.402 71 33.375 71s30.844-4.74 31.815-10.717h.06V10.717h-.06z"/>
            <path fill="#483E72" d="M33.216 54.689c-17.67 0-31.994-5.138-31.994-11.474v16.873h.06c.975 6.022 14.897 10.8 31.934 10.8s30.96-4.778 31.934-10.8h.06V43.215c0 6.336-14.324 11.474-31.994 11.474z"/>
            <path fill="#38454F" d="M1.222 42.54v.675c0-.227.024-.45.06-.675h-.06zM65.15 42.54c.036.224.06.448.06.675v-.675h-.06z"/>
            <path fill="#827D9C" d="M33.216 38.994c-17.67 0-31.994-5.137-31.994-11.474v16.874h.06c.975 6.022 14.897 10.799 31.934 10.799s30.96-4.777 31.934-10.8h.06V27.52c0 6.337-14.324 11.474-31.994 11.474z"/>
            <path fill="#556080" d="M1.222 26.845v.675c0-.227.024-.45.06-.675h-.06zM65.15 26.845c.036.224.06.448.06.675v-.675h-.06z"/>
            <ellipse cx="33.375" cy="11.584" fill="#DDD8F9" rx="31.875" ry="11.584"/>
            <g>
                <path fill="#B3AECF" d="M33.216 22.552c-17.67 0-31.994-5.138-31.994-11.474v16.874h.06C2.257 33.973 16.18 38.75 33.216 38.75s30.96-4.778 31.934-10.8h.06V11.079c0 6.336-14.324 11.474-31.994 11.474z"/>
                <path fill="#8697CB" d="M1.222 10.403v.675c0-.227.024-.45.06-.675h-.06zM65.15 10.403c.036.224.06.448.06.675v-.675h-.06z"/>
            </g>
        </g>
        <g transform="translate(34 49)">
            <path fill="#FFF" d="M38.519 12.886l-.15.228c-9.94 15.2-26.207 15.2-36.147 0l.15-.228c9.94-15.2 26.206-15.2 36.147 0z"/>
            <ellipse cx="20" cy="9.657" fill="#6BB725" rx="8.148" ry="8.171"/>
            <path fill="#DDD8F9" d="M19.924 26C12.52 26 5.626 21.697.504 13.885L0 13.115l.655-1C5.777 4.302 12.673 0 20.076 0c7.401 0 14.298 4.302 19.42 12.115l.504.77-.655 1C34.222 21.697 27.327 26 19.924 26zM3.379 13.108c4.517 6.507 10.364 10.078 16.545 10.078 6.25 0 12.16-3.65 16.696-10.297C32.103 6.382 26.256 2.812 20.075 2.812c-6.25 0-12.16 3.65-16.696 10.296z"/>
        </g>
    </g>
</svg>
