<svg xmlns="http://www.w3.org/2000/svg" width="158" height="60" viewBox="0 0 158 60">
    <g fill="#FFF" fill-rule="evenodd" opacity=".132">
        <path d="M4.774 2.393a2.39 2.39 0 0 1-2.388 2.394A2.39 2.39 0 0 1 0 2.393 2.39 2.39 0 0 1 2.386 0a2.39 2.39 0 0 1 2.388 2.393M19.097 2.393a2.39 2.39 0 0 1-2.388 2.394 2.39 2.39 0 0 1-2.386-2.394A2.39 2.39 0 0 1 16.709 0a2.39 2.39 0 0 1 2.388 2.393M32.226 2.393a2.39 2.39 0 0 1-2.387 2.394 2.39 2.39 0 0 1-2.387-2.394A2.39 2.39 0 0 1 29.839 0a2.39 2.39 0 0 1 2.387 2.393M46.548 2.393a2.39 2.39 0 0 1-2.388 2.394 2.39 2.39 0 0 1-2.386-2.394A2.39 2.39 0 0 1 44.16 0a2.39 2.39 0 0 1 2.388 2.393M59.677 2.393a2.39 2.39 0 0 1-2.387 2.394 2.39 2.39 0 0 1-2.387-2.394A2.39 2.39 0 0 1 57.29 0a2.39 2.39 0 0 1 2.387 2.393M4.774 15.557a2.39 2.39 0 0 1-2.388 2.394A2.39 2.39 0 0 1 0 15.557a2.39 2.39 0 0 1 2.386-2.393 2.39 2.39 0 0 1 2.388 2.393M19.097 15.557a2.39 2.39 0 0 1-2.388 2.394 2.39 2.39 0 0 1-2.386-2.394 2.39 2.39 0 0 1 2.386-2.393 2.39 2.39 0 0 1 2.388 2.393M32.226 15.557a2.39 2.39 0 0 1-2.387 2.394 2.39 2.39 0 0 1-2.387-2.394 2.39 2.39 0 0 1 2.387-2.393 2.39 2.39 0 0 1 2.387 2.393M46.548 15.557a2.39 2.39 0 0 1-2.388 2.394 2.39 2.39 0 0 1-2.386-2.394 2.39 2.39 0 0 1 2.386-2.393 2.39 2.39 0 0 1 2.388 2.393M59.677 15.557a2.39 2.39 0 0 1-2.387 2.394 2.39 2.39 0 0 1-2.387-2.394 2.39 2.39 0 0 1 2.387-2.393 2.39 2.39 0 0 1 2.387 2.393M4.774 30.517c0 1.651-1.068 2.991-2.388 2.991C1.07 33.508 0 32.168 0 30.517c0-1.653 1.069-2.992 2.386-2.992 1.32 0 2.388 1.34 2.388 2.992M19.097 30.517c0 1.651-1.069 2.991-2.388 2.991-1.318 0-2.386-1.34-2.386-2.991 0-1.653 1.068-2.992 2.386-2.992 1.32 0 2.388 1.34 2.388 2.992M32.226 30.517c0 1.651-1.069 2.991-2.387 2.991-1.32 0-2.387-1.34-2.387-2.991 0-1.653 1.068-2.992 2.387-2.992 1.318 0 2.387 1.34 2.387 2.992M46.548 30.517c0 1.651-1.068 2.991-2.388 2.991-1.318 0-2.386-1.34-2.386-2.991 0-1.653 1.068-2.992 2.386-2.992 1.32 0 2.388 1.34 2.388 2.992M59.677 30.517c0 1.651-1.068 2.991-2.387 2.991-1.318 0-2.387-1.34-2.387-2.991 0-1.653 1.069-2.992 2.387-2.992 1.32 0 2.387 1.34 2.387 2.992M4.774 43.68c0 1.652-1.068 2.992-2.388 2.992C1.07 46.672 0 45.332 0 43.68s1.069-2.991 2.386-2.991c1.32 0 2.388 1.34 2.388 2.991M19.097 43.68c0 1.652-1.069 2.992-2.388 2.992-1.318 0-2.386-1.34-2.386-2.992s1.068-2.991 2.386-2.991c1.32 0 2.388 1.34 2.388 2.991M32.226 43.68c0 1.652-1.069 2.992-2.387 2.992-1.32 0-2.387-1.34-2.387-2.992s1.068-2.991 2.387-2.991c1.318 0 2.387 1.34 2.387 2.991M46.548 43.68c0 1.652-1.068 2.992-2.388 2.992-1.318 0-2.386-1.34-2.386-2.992s1.068-2.991 2.386-2.991c1.32 0 2.388 1.34 2.388 2.991M59.677 43.68c0 1.652-1.068 2.992-2.387 2.992-1.318 0-2.387-1.34-2.387-2.992s1.069-2.991 2.387-2.991c1.32 0 2.387 1.34 2.387 2.991M4.774 57.443a2.39 2.39 0 0 1-2.388 2.393A2.39 2.39 0 0 1 0 57.443a2.39 2.39 0 0 1 2.386-2.394 2.39 2.39 0 0 1 2.388 2.394M19.097 57.443a2.39 2.39 0 0 1-2.388 2.393 2.39 2.39 0 0 1-2.386-2.393 2.39 2.39 0 0 1 2.386-2.394 2.39 2.39 0 0 1 2.388 2.394M32.226 57.443a2.39 2.39 0 0 1-2.387 2.393 2.39 2.39 0 0 1-2.387-2.393 2.39 2.39 0 0 1 2.387-2.394 2.39 2.39 0 0 1 2.387 2.394M46.548 57.443a2.39 2.39 0 0 1-2.388 2.393 2.39 2.39 0 0 1-2.386-2.393 2.39 2.39 0 0 1 2.386-2.394 2.39 2.39 0 0 1 2.388 2.394M59.677 57.443a2.39 2.39 0 0 1-2.387 2.393 2.39 2.39 0 0 1-2.387-2.393 2.39 2.39 0 0 1 2.387-2.394 2.39 2.39 0 0 1 2.387 2.394M74 2.393a2.39 2.39 0 0 1-2.388 2.394 2.39 2.39 0 0 1-2.386-2.394A2.39 2.39 0 0 1 71.612 0 2.39 2.39 0 0 1 74 2.393M74 15.557a2.39 2.39 0 0 1-2.388 2.394 2.39 2.39 0 0 1-2.386-2.394 2.39 2.39 0 0 1 2.386-2.393A2.39 2.39 0 0 1 74 15.557M74 30.517c0 1.651-1.068 2.991-2.388 2.991-1.318 0-2.386-1.34-2.386-2.991 0-1.653 1.068-2.992 2.386-2.992 1.32 0 2.388 1.34 2.388 2.992M74 43.68c0 1.652-1.068 2.992-2.388 2.992-1.318 0-2.386-1.34-2.386-2.992s1.068-2.991 2.386-2.991c1.32 0 2.388 1.34 2.388 2.991M74 57.443a2.39 2.39 0 0 1-2.388 2.393 2.39 2.39 0 0 1-2.386-2.393 2.39 2.39 0 0 1 2.386-2.394A2.39 2.39 0 0 1 74 57.443"/>
        <g>
            <path d="M88.774 2.393a2.39 2.39 0 0 1-2.388 2.394A2.39 2.39 0 0 1 84 2.393 2.39 2.39 0 0 1 86.386 0a2.39 2.39 0 0 1 2.388 2.393M103.097 2.393a2.39 2.39 0 0 1-2.388 2.394 2.39 2.39 0 0 1-2.386-2.394A2.39 2.39 0 0 1 100.709 0a2.39 2.39 0 0 1 2.388 2.393M116.226 2.393a2.39 2.39 0 0 1-2.387 2.394 2.39 2.39 0 0 1-2.387-2.394A2.39 2.39 0 0 1 113.839 0a2.39 2.39 0 0 1 2.387 2.393M130.548 2.393a2.39 2.39 0 0 1-2.388 2.394 2.39 2.39 0 0 1-2.386-2.394A2.39 2.39 0 0 1 128.16 0a2.39 2.39 0 0 1 2.388 2.393M143.677 2.393a2.39 2.39 0 0 1-2.387 2.394 2.39 2.39 0 0 1-2.387-2.394A2.39 2.39 0 0 1 141.29 0a2.39 2.39 0 0 1 2.387 2.393M88.774 15.557a2.39 2.39 0 0 1-2.388 2.394A2.39 2.39 0 0 1 84 15.557a2.39 2.39 0 0 1 2.386-2.393 2.39 2.39 0 0 1 2.388 2.393M103.097 15.557a2.39 2.39 0 0 1-2.388 2.394 2.39 2.39 0 0 1-2.386-2.394 2.39 2.39 0 0 1 2.386-2.393 2.39 2.39 0 0 1 2.388 2.393M116.226 15.557a2.39 2.39 0 0 1-2.387 2.394 2.39 2.39 0 0 1-2.387-2.394 2.39 2.39 0 0 1 2.387-2.393 2.39 2.39 0 0 1 2.387 2.393M130.548 15.557a2.39 2.39 0 0 1-2.388 2.394 2.39 2.39 0 0 1-2.386-2.394 2.39 2.39 0 0 1 2.386-2.393 2.39 2.39 0 0 1 2.388 2.393M143.677 15.557a2.39 2.39 0 0 1-2.387 2.394 2.39 2.39 0 0 1-2.387-2.394 2.39 2.39 0 0 1 2.387-2.393 2.39 2.39 0 0 1 2.387 2.393M88.774 30.517c0 1.651-1.068 2.991-2.388 2.991-1.317 0-2.386-1.34-2.386-2.991 0-1.653 1.069-2.992 2.386-2.992 1.32 0 2.388 1.34 2.388 2.992M103.097 30.517c0 1.651-1.069 2.991-2.388 2.991-1.318 0-2.386-1.34-2.386-2.991 0-1.653 1.068-2.992 2.386-2.992 1.32 0 2.388 1.34 2.388 2.992M116.226 30.517c0 1.651-1.069 2.991-2.387 2.991-1.32 0-2.387-1.34-2.387-2.991 0-1.653 1.068-2.992 2.387-2.992 1.318 0 2.387 1.34 2.387 2.992M130.548 30.517c0 1.651-1.068 2.991-2.388 2.991-1.318 0-2.386-1.34-2.386-2.991 0-1.653 1.068-2.992 2.386-2.992 1.32 0 2.388 1.34 2.388 2.992M143.677 30.517c0 1.651-1.068 2.991-2.387 2.991-1.318 0-2.387-1.34-2.387-2.991 0-1.653 1.069-2.992 2.387-2.992 1.32 0 2.387 1.34 2.387 2.992M88.774 43.68c0 1.652-1.068 2.992-2.388 2.992-1.317 0-2.386-1.34-2.386-2.992s1.069-2.991 2.386-2.991c1.32 0 2.388 1.34 2.388 2.991M103.097 43.68c0 1.652-1.069 2.992-2.388 2.992-1.318 0-2.386-1.34-2.386-2.992s1.068-2.991 2.386-2.991c1.32 0 2.388 1.34 2.388 2.991M116.226 43.68c0 1.652-1.069 2.992-2.387 2.992-1.32 0-2.387-1.34-2.387-2.992s1.068-2.991 2.387-2.991c1.318 0 2.387 1.34 2.387 2.991M130.548 43.68c0 1.652-1.068 2.992-2.388 2.992-1.318 0-2.386-1.34-2.386-2.992s1.068-2.991 2.386-2.991c1.32 0 2.388 1.34 2.388 2.991M143.677 43.68c0 1.652-1.068 2.992-2.387 2.992-1.318 0-2.387-1.34-2.387-2.992s1.069-2.991 2.387-2.991c1.32 0 2.387 1.34 2.387 2.991M88.774 57.443a2.39 2.39 0 0 1-2.388 2.393A2.39 2.39 0 0 1 84 57.443a2.39 2.39 0 0 1 2.386-2.394 2.39 2.39 0 0 1 2.388 2.394M103.097 57.443a2.39 2.39 0 0 1-2.388 2.393 2.39 2.39 0 0 1-2.386-2.393 2.39 2.39 0 0 1 2.386-2.394 2.39 2.39 0 0 1 2.388 2.394M116.226 57.443a2.39 2.39 0 0 1-2.387 2.393 2.39 2.39 0 0 1-2.387-2.393 2.39 2.39 0 0 1 2.387-2.394 2.39 2.39 0 0 1 2.387 2.394M130.548 57.443a2.39 2.39 0 0 1-2.388 2.393 2.39 2.39 0 0 1-2.386-2.393 2.39 2.39 0 0 1 2.386-2.394 2.39 2.39 0 0 1 2.388 2.394M143.677 57.443a2.39 2.39 0 0 1-2.387 2.393 2.39 2.39 0 0 1-2.387-2.393 2.39 2.39 0 0 1 2.387-2.394 2.39 2.39 0 0 1 2.387 2.394M158 2.393a2.39 2.39 0 0 1-2.388 2.394 2.39 2.39 0 0 1-2.386-2.394A2.39 2.39 0 0 1 155.612 0 2.39 2.39 0 0 1 158 2.393M158 15.557a2.39 2.39 0 0 1-2.388 2.394 2.39 2.39 0 0 1-2.386-2.394 2.39 2.39 0 0 1 2.386-2.393A2.39 2.39 0 0 1 158 15.557M158 30.517c0 1.651-1.068 2.991-2.388 2.991-1.318 0-2.386-1.34-2.386-2.991 0-1.653 1.068-2.992 2.386-2.992 1.32 0 2.388 1.34 2.388 2.992M158 43.68c0 1.652-1.068 2.992-2.388 2.992-1.318 0-2.386-1.34-2.386-2.992s1.068-2.991 2.386-2.991c1.32 0 2.388 1.34 2.388 2.991M158 57.443a2.39 2.39 0 0 1-2.388 2.393 2.39 2.39 0 0 1-2.386-2.393 2.39 2.39 0 0 1 2.386-2.394A2.39 2.39 0 0 1 158 57.443"/>
        </g>
    </g>
</svg>
