<svg xmlns="http://www.w3.org/2000/svg" width="116" height="116" viewBox="0 0 116 116">
    <g fill="none" fill-rule="evenodd" transform="translate(2 2)">
        <path stroke="#C0C6D3" stroke-dasharray="0,11" stroke-linecap="round" stroke-width="3" d="M56 112c30.928 0 56-25.072 56-56S86.928 0 56 0 0 25.072 0 56s25.072 56 56 56z"/>
        <circle cx="56" cy="56" r="49" fill="#FFF"/>
        <g fill="#483E72" fill-rule="nonzero">
            <path d="M54.111 34H38.185a.797.797 0 0 0 0 1.593h15.926a.797.797 0 0 0 0-1.593zM74.815 34H58.889a.797.797 0 0 0 0 1.593h15.926a.797.797 0 0 0 0-1.593zM77.204 36.389a.797.797 0 0 0-.797.796v15.926a.797.797 0 0 0 1.593 0V37.185a.797.797 0 0 0-.796-.796zM74.815 75.407H58.889a.797.797 0 0 0 0 1.593h15.926a.797.797 0 0 0 0-1.593zM54.111 75.407H38.185a.797.797 0 0 0 0 1.593h15.926a.797.797 0 0 0 0-1.593zM35.796 36.389a.797.797 0 0 0-.796.796v15.926a.797.797 0 0 0 1.593 0V37.185a.797.797 0 0 0-.797-.796zM77.204 57.093a.797.797 0 0 0-.797.796v15.926a.797.797 0 0 0 1.593 0V57.889a.797.797 0 0 0-.796-.796zM35.796 57.093a.797.797 0 0 0-.796.796v15.926a.797.797 0 0 0 1.593 0V57.889a.797.797 0 0 0-.797-.796z"/>
            <path d="M32.75 32.75h4.5v4.5h-4.5z"/>
            <path d="M38 38h-6v-6h6v6zm-4.5-1.5h3v-3h-3v3z"/>
            <g>
                <path d="M32.75 53.75h4.5v4.5h-4.5z"/>
                <path d="M38 59h-6v-6h6v6zm-4.5-1.5h3v-3h-3v3z"/>
            </g>
            <g>
                <path d="M74.75 53.75h4.5v4.5h-4.5z"/>
                <path d="M80 59h-6v-6h6v6zm-4.5-1.5h3v-3h-3v3z"/>
            </g>
            <g>
                <path d="M53.75 74.75h4.5v4.5h-4.5z"/>
                <path d="M59 80h-6v-6h6v6zm-4.5-1.5h3v-3h-3v3z"/>
            </g>
            <g>
                <path d="M53.75 32.75h4.5v4.5h-4.5z"/>
                <path d="M59 38h-6v-6h6v6zm-4.5-1.5h3v-3h-3v3z"/>
            </g>
            <g>
                <path d="M32.75 74.75h4.5v4.5h-4.5z"/>
                <path d="M38 80h-6v-6h6v6zm-4.5-1.5h3v-3h-3v3z"/>
            </g>
            <g>
                <path d="M74.75 32.75h4.5v4.5h-4.5z"/>
                <path d="M80 38h-6v-6h6v6zm-4.5-1.5h3v-3h-3v3z"/>
            </g>
            <g>
                <path d="M74.75 74.75h4.5v4.5h-4.5z"/>
                <path d="M80 80h-6v-6h6v6zm-4.5-1.5h3v-3h-3v3z"/>
            </g>
        </g>
    </g>
</svg>
