<svg xmlns="http://www.w3.org/2000/svg" width="99" height="64" viewBox="0 0 99 64">
    <g fill="none" fill-rule="nonzero">
        <path fill="#F3F2FA" d="M98.608 36.506C90.484 22.5 68.98 11.907 49.483 11.907S8.516 22.499.392 36.507a2.868 2.868 0 0 0 0 2.894C8.516 53.408 29.986 64 49.483 64s41.001-10.592 49.125-24.6a2.868 2.868 0 0 0 0-2.894z"/>
        <path fill="#DDD8F9" d="M98.605 39.4C90.423 53.408 68.765 64 49.128 64V11.907c19.637 0 41.295 10.592 49.477 24.6a2.85 2.85 0 0 1 0 2.893z"/>
        <path fill="#E2E1E9" d="M49.128 11.907c-14.358 0-26.053 11.692-26.053 26.046C23.075 52.308 34.77 64 49.128 64c6.992 0 13.353-2.773 18.039-7.276 4.936-4.744 8.013-11.407 8.013-18.77 0-14.355-11.694-26.047-26.052-26.047z"/>
        <path fill="#827D9C" d="M75.925 37.953C75.925 52.308 63.895 64 49.128 64V11.907c14.768 0 26.797 11.692 26.797 26.046z"/>
        <path fill="#87D143" d="M49.5 23.07c-8.012 0-14.515 6.501-14.515 14.511 0 8.01 6.503 14.512 14.515 14.512s14.515-6.501 14.515-14.512c0-8.01-6.503-14.511-14.515-14.511z"/>
        <path fill="#6BB725" d="M64.015 37.581c0 8.01-6.336 14.512-14.143 14.512V23.07c7.807 0 14.143 6.501 14.143 14.511z"/>
        <path fill="#3E5959" d="M98.241 22.087c-.522.633-1.334.978-2.146.978-.696 0-1.392-.23-1.914-.748C81.13 10.871 62.26 5.752 49.5 5.752c-12.76 0-31.63 5.119-44.681 16.565-1.218 1.093-3.016.978-4.06-.23-1.102-1.15-.986-2.99.232-4.026C13.46 7.075 32.62 0 49.5 0s36.039 7.075 48.51 18.061c1.217 1.035 1.333 2.876.231 4.026z"/>
        <path fill="#EDE9E8" d="M52.105 37.953a2.948 2.948 0 0 1-2.977 2.977 2.948 2.948 0 0 1-2.978-2.977 2.948 2.948 0 0 1 2.978-2.976 2.948 2.948 0 0 1 2.977 2.976z"/>
        <path fill="#DFD7D5" d="M52.85 37.953c0 1.667-1.638 2.977-3.722 2.977v-5.953c2.084 0 3.722 1.309 3.722 2.976z"/>
        <path fill="#384949" d="M98.235 22.092c-.525.633-1.343.978-2.162.978-.701 0-1.402-.23-1.929-.748-13.148-11.449-32.16-16.57-45.016-16.57V0c17.005 0 36.31 7.076 48.874 18.065 1.227 1.035 1.344 2.876.233 4.027z"/>
    </g>
</svg>
