<svg xmlns="http://www.w3.org/2000/svg" xmlns:xlink="http://www.w3.org/1999/xlink" width="313" height="298" viewBox="0 0 313 298">
    <defs>
        <path id="a" d="M0 .678h312.321V267H.001z"/>
        <path id="c" d="M.1.083h25.513v24.94H.101z"/>
    </defs>
    <g fill="none" fill-rule="evenodd">
        <g transform="translate(0 31)">
            <mask id="b" fill="#fff">
                <use xlink:href="#a"/>
            </mask>
            <path fill="#F6F7FF" d="M3.333 174.32c.849 17.224 3.971 33.461 10.765 49.27 5.747 13.376 16.565 24.593 28.872 31.944 12.294 7.343 26.873 9.693 40.852 10.862 27.645 2.312 56.097-2.498 83.404-6.262 16.511-2.277 32.958-5.024 49.331-8.16 15.272-2.923 31.379-5.27 45.958-10.875 14.37-5.526 26.22-13.977 35.568-26.36 8.742-11.578 12.203-25.556 13.71-39.796 1.64-15.517-.854-31.474-3.153-46.78-.98-6.533-2.119-13.04-3.163-19.563-.067-.421-.263-1.82-.376-2.6-.114-.99-.232-1.98-.338-2.972-.402-3.73-.738-7.465-1.12-11.197-1.147-11.207-2.446-22.646-6.455-33.23-5.045-13.325-12.953-23.106-24.144-31.595-16.471-12.497-38.56-15.949-58.379-18.85C186.904 4.091 159.023.789 130.94.68c-13.167-.05-26.396.676-39.498 1.986-7.242.725-14.2 1.964-21.14 4.16-7.461 2.36-13.19 5.972-19.18 10.752-1.1.234-2.197.49-3.286.775C33.963 21.996 23.72 30.306 16.157 42.43.511 67.51-1.35 100.48.666 129.243a2171.32 2171.32 0 0 1 2.667 45.077" mask="url(#b)"/>
        </g>
        <g fill="#A29BCE">
            <path d="M238.902 110.688c.79 7.135 7.505 9.252 13.653 7.474 2.363-.683 4.65-1.703 6.603-3.209 3.583-2.762 5.102-6.059 5-10.578-.087-3.95-3.408-7.977-7.585-7.694-2.277.154-4.49.113-6.556 1.37-2.165 1.317-3.847 3.37-5.303 5.42-1.417 1.993.754-.638-.314.48-.367.382-.753.768-1.105 1.163 1.326-1 1.082-.799-.734.605-.573.523-.397.41.527-.339-1.498.75.723-.182 1.251-.207-2.685.128-5.776 2.434-5.437 5.515M123.218 80.154c2.753 1.792 5.837 3.13 8.975 4.096 3.747 1.155 7.62.451 11.416-.195 7.725-1.315 6.7-12.879 0-14.839-3.402-.995-6.322-2.322-9.978-1.987-3.686.339-7.204.834-10.413 2.802-3.816 2.34-3.65 7.748 0 10.123M101.338 143.927c3.112 2.152 7.604 1.554 10.946.259 1.822-.705 3.547-1.625 5.262-2.553.85-.46 1.76-.883 2.57-1.41 2.395-1.56-2.215.172.347-.033l-9.943-7.679c2.484 10.1 10.21 17.615 20.096 20.308 9.303 2.534 19.069.514 27.667-3.434 7.635-3.506 14.83-10.091 18.74-17.653 2.93-5.665 3.696-11.812.497-17.593-3.951-7.141-12.171-6.825-17.674-2.01-4.796 4.195-2.9 12.004 1.916 15.08 5.917 3.782 12.783 3.002 18.697-.42 6.156-3.562 9.09-9.035 9.299-16.11.152-5.146-5.544-10.151-10.619-8.204-3.608 1.384-6.174 2.057-9.195 4.85-.708.654-1.22 1.424-1.951 1.848-1 .578.583.27-1.453.142l6.695 16.393.81-.801-4.161 2.46.775-.212-7.27-.965.68.294-3.384-3.432c-.689-1.989-.563-3.745.38-5.271-.406.421-.83.821-1.274 1.2a60.366 60.366 0 0 0-2.904 2.423c-.686.614-1.357 1.294-1.998 1.952-2.032 2.084 1.627-.895-.848.702-1.943 1.253-3.9 2.315-5.935 3.407-2.562 1.374.571.021-1.515.735-1.004.343-1.995.703-3.019.988-1.012.281-2.027.489-3.054.7 2.65-.545-.24-.007-.906.017-1.162.043-2.322-.002-3.482-.06-.885-.072-.654-.029.695.13a20.084 20.084 0 0 1-1.883-.437c-2.134-.325 1.18.984-.81-.249-.322-.199-2.678-1.934-.928-.416-1.804-1.563-3.251-3.502-3.837-4.422-3.21-5.049-11.877-7.716-16.196-2.117-2.845 3.689-3.538 5.33-6.218 9.364-1.819 2.736-4.032 4.528-6.305 6.797-1.655 1.652-1.092 4.2.69 5.432M201.082 134.773c-.052 2.197-1.69 5.119-1.883 7.897-.326 4.683 1.699 8.873 4.566 12.426 2.386 2.957 5.51 5.217 8.165 7.922 3.299 3.358 6.787 6.715 10.924 8.995 18.021 9.933 47.549-3.696 43.526-26.7-.928-5.308-7.014-8.61-11.88-7.868-5.759.88-8.68 5.196-9.388 10.787-1.32 10.436 8.703 16.38 17.745 15.93 6.512-.324 13.361-2.11 19.028-5.461 6.415-3.796 13.177-9.89 16.646-16.617 5.783-11.211.726-25.002-12.746-25.537-7.37-.293-12.186 8.634-8.422 14.888.6.995 1.19 3.87.629 1.008.41 2.093.091-2.27.165-2.647-.386 2 1.34-1.374-.074.165-.323.352-2.723 3.656-.839 1.403a43.755 43.755 0 0 1-4.122 4.294c-.493.448-3.744 2.91-1.07 1-.594.424-1.17.875-1.786 1.27-.608.392-3.634 1.816-1.78 1.055 2.125-.873-.932.315-1.305.45-.788.283-1.59.539-2.383.809-1.906.65-3.756 1.22-5.724 1.64 2.87-.612.866-.052.047-.189 4.234.712 8.393 4.397 7.259 9.458l-21.268-2.92c.212 3.352-.057-1.492.83-.93.015.01-3.17 3.07-3.472 3.299 1.093-.828-1.773.998-2.116 1.202-.477.269-.965.516-1.464.742 1.343-.6 1.125-.582-.657.054-1.49.237-1.897.611-3.741.435 2.107.202-2.928-1.185-1.166-.358-2.633-1.235-3.69-2.594-5.9-4.543-2.603-2.298-5.309-3.785-8.348-5.327-1.348-.684-2.816-1.8-4.239-2.268-.282.317-.566.063-.852-.76.87 1.847 1.083 2.106.64.776-.805-4.416-3.605-10.655-8.616-10.78-2.71-.068-4.868 2.347-4.93 5M160.88 162.376c2.262 26.833-.017 53.817 1.238 80.696.34 7.264 10.887 7.304 11.156 0 1.014-27.444-.133-54.685-6.33-81.529-.778-3.374-6.366-2.732-6.065.833M197.448 178.767c-1.018 10.276-2.117 20.552-2.409 30.881-.292 10.366.908 20.305 2.938 30.45 1.188 5.943 10.839 4.66 10.483-1.439-1.166-19.952-2.271-39.926-3.39-59.892-.283-5.035-7.136-4.904-7.622 0M228.58 210.044c-2.886 8.438-4.15 16.98-6.05 25.655-1.962 8.964 11.481 11.066 12.376 1.7.852-8.916.201-17.563.056-26.48-.063-3.818-5.197-4.34-6.382-.875M118.943 194.177c4.769 6.198 9.341 12.15 15.03 17.536 6.071 5.751 14.324-2.868 9.024-9.153-4.987-5.912-9.583-12.042-14.803-17.767-2.4-2.632-6.821-2.465-9.251 0-2.752 2.791-2.181 6.549 0 9.384M89.28 211.656c7.781 6.97 15.04 14.623 22.261 22.18 5.834 6.107 14.63-3.004 9.139-9.267-6.995-7.978-14.187-15.357-22.49-21.951-2.698-2.143-6.269-2.62-8.91 0-2.32 2.303-2.54 6.762 0 9.038"/>
        </g>
        <path fill="#FFF" d="M66.493 73.624c-3.179.662-6.388 3.632-8.767 5.985l6.07-3.575c-2.795 1.1-5.577 2.072-7.689 4.397-2.058 2.264-3.021 4.454-4.191 7.34-1.418 3.498-.337 9.487 1.627 12.566l2.525 3.3a16.092 16.092 0 0 0 7.122 4.195c.17.086.35.139.54.159 5.62 1.135 11.127.137 15.311-4.09a15.93 15.93 0 0 0 4.046-7.015c.75-2.817.75-5.635 0-8.453l-.046-.318.569 4.282.012-.291c.144-3.571-1.364-7.133-3.466-9.882-2.311-3.022-4.867-4.405-8.385-5.843a17.187 17.187 0 0 0-.196-.08l3.797 1.618-.978-.483 6.322 8.305c-.288-1.192-.363-2.422-.635-3.615-1.414-6.214-7.558-9.758-13.588-8.502M90.74 105.004c-5.046 1.961-8.56 6.499-9.652 11.863-.702 3.452-.83 7.035.003 10.485 1.238 5.129 4.242 7.956 8.238 11.034 2.678 2.06 8.11 2.488 11.195 1.48 3.062-1.002 5.57-2.676 7.546-5.261 4.242-5.547 4.217-14.295-1.135-19.272-1.528-1.421-3.09-2.792-4.876-3.88-.391-.237-.977-.724-1.42-.842.785.208 2.279 2.172.898.495-.267-.324-.546-.683-.853-.972-.895-.842 1.283 2.068.326.429-.738-1.267-1.638-2.414-2.604-3.512-1.701-1.933-5.227-2.995-7.667-2.047M127.224 113.021c-2.129 2.701-3.666 5.274-3.286 8.947.337 3.249 1.027 6.091 2.626 8.987 2.915 5.277 7.977 9.512 13.755 11.149 9.263 2.625 18.696-4.768 18.696-14.39 0-9.614-9.43-16.983-18.696-14.388-.729.204-1.431.409-2.18.523l3.713-.503c-.781.07-1.532.077-2.313.012l3.483.473c-.801-.11-1.582-.256-2.354-.502-2.791-.89 1.668 1.122.117.026a10.194 10.194 0 0 1-.94-.61c1.918 1.455 1.647 1.232-.812-.668-1.347-.796-2.164-.865-3.392-1.304-2.61-.931-6.652.008-8.417 2.248"/>
        <path fill="#FFF" d="M67.482 66.118c1.54 15.28 4.821 29.887 15.589 41.44 11.059 11.864 26.635 19.026 42.53 20.893 15.912 1.87 33.843-2.995 46.694-12.662 6.924-5.21 11.906-11.93 14.855-20.133 2.714-7.554 2.2-14.907 1.077-22.696-1.005-6.968-11.817-7.858-14.782-1.951-2.68 5.34-4.755 10.84-6.681 16.49-.452 1.326-.228.932-1.264 2.813-.584 1.06-1.208 2.141-1.96 3.086.611-.769-1.726 1.684-1.67 1.63-1.022.996-2.118 1.984-3.263 2.837-9.21 6.87-22.332 10.91-33.733 10.365-11.681-.559-23.392-5.697-31.855-13.81-8.63-8.274-13.647-19.38-18.267-30.291-1.503-3.548-7.65-1.792-7.27 1.99"/>
        <path fill="#FFF" d="M157.034 39.911c4.042.12 7.214-3.912 8.191-7.503 1.34-4.922-.862-9.374-3.991-13-5.5-6.375-14.489-9.48-22.482-11.235-20.186-4.432-41.255 1.002-57.444 13.933-11.255 8.987-17.585 22.815-15.28 37.232 1.366 8.552 14.997 10.15 18.607 2.457 1.171-2.497 2.292-5.06 3.669-7.45.593-1.03 1.252-2.005 1.904-2.997.25-.38 2.933-4.319 1.338-2.209 1.532-2.027 3.39-3.802 5.282-5.476.4-.353 3.614-2.931 1.453-1.296.953-.721 1.948-1.4 2.952-2.046a57.338 57.338 0 0 1 7.45-4.026c-2.416 1.09 1.193-.425 1.382-.493a67.426 67.426 0 0 1 4.064-1.322c2.52-.735 5.084-1.303 7.65-1.846a79.537 79.537 0 0 1 4.08-.764c1.203-.19-1.88-.071 1.008-.08 2.638-.007 5.224.145 7.853.382 3.517.316-1.304-.22.995.118.653.095 6.238.933 2.682.355 2.079.338 4.147.674 6.192 1.192 1.603.408 3.204.827 4.803 1.242.618.161 3.476 1.304 1.04.127.57.275 1.054.622 1.602.925 2.38 1.315-.092-.321-.152-.847.293 2.534 2.71 4.554 5.152 4.627"/>
        <g transform="translate(83.535)">
            <mask id="d" fill="#fff">
                <use xlink:href="#c"/>
            </mask>
            <path fill="#FFF" d="M21.22 22.34c.89-.775 1.529-1.961 2.257-2.916-.56.73-1.119 1.462-1.677 2.194.125-.16.253-.316.384-.472 2.567-3.022 3.842-6.21 3.31-10.214a9.11 9.11 0 0 0-1.428-4.52 12.164 12.164 0 0 0-4.318-4.363l-.259-.194c-3.217-2.406-9.221-2.319-12.45 0-1.243.894-2.51 1.814-3.623 2.872C.02 7.953-.739 13.368 1.011 17.562c.808 1.932 1.94 3.418 3.582 4.7 2.187 1.708 4.283 2.224 7.046 2.523l.397.042a1782.48 1782.48 0 0 1-3.139-.426c.37.06.726.137 1.089.228 2.726.688 5.45.473 8.03-.628 2.606-1.111 4.25-2.749 5.897-5.098l.153-.218-13.592 5.589c4.115.666 7.217 1.14 10.745-1.934" mask="url(#d)"/>
        </g>
        <path fill="#FFF" d="M75.717 39.954c-1.001-.72 1.264 1.223.659.508-.16-.19-.384-.348-.56-.522-.385-.378-2.062-2.43-.745-.697 1.713 2.25-1.163-1.503-1.307-1.67-.139-.16-.578-.83-.793-.873.263.052 1.546 2.6 1.092 1.4-.133-.351-.393-.71-.545-1.061l1.297 3.105-.11-.327.466 3.5c.008-.097.018-.194.025-.293-.158 1.191-.317 2.38-.474 3.571.966-2.743.407-5.455-.02-8.2-.54-3.486-3.499-6.458-6.305-8.286-3.657-2.38-8.345-2.349-12.214-.699-3.43 1.462-5.807 3.864-7.254 7.329-1.815 4.346-1.186 8.15.692 12.34.897 2 2.264 3.162 3.865 4.413 2.643 2.063 5.115 2.618 8.416 2.965l-3.535-.48c3.7.504 6.959 1.391 10.702.348 2.292-.638 4.694-1.699 6.648-3.103 4.862-3.497 4.869-9.773 0-13.268M166.441 46.27c.14 4.495 3.178 8.849 6.152 12.005 1.631 1.729 3.603 3.262 5.549 4.592.591.403 1.198.91 1.874 1.162 1.562.583-2.829-2.402-1.044-.959 7.745 6.266 17.311 5.513 23.113-3.009l.399-.585c2.062-3.03 2.645-8.452 1.54-11.9-1.309-4.09-3.683-6.635-7.024-9.23l-.419-.325c-4.2-3.263-11.026-2.44-15.312 0l2.839-1.188c-6.066 2.342-10.148 7.002-10.37 13.76-.152 4.607 1.927 9.339 5.234 12.477l-2.3-18.017c1.995-2.21 2.478-2.845 1.451-1.906l5.931-3.492c-1.962.684 2.711.11 1.088-.057-.499-.052-1.05.03-1.556.02-1.354-.029-2.705-.196-4.055-.278-2.647-.16-5.33-.681-7.937.092-2.887.857-5.25 3.703-5.153 6.837M139.378 55.75c-6.653-19.29-32.28-17.336-42.962-2.72-12.316 16.854-3.286 40.886 14.47 49.1 7.902 3.655 17.416-4.062 12.498-12.625-2.512-4.374-5.378-8.637-7.712-13.097-1.464-2.798-2.016-6.461-.83-9.557 1.18-3.08 2.819-5.094 6.782-6.647 4.17-1.635 9.577-1.738 13.846-.506 2.217.64 4.715-1.606 3.908-3.948M256.467 89.655c.133-7.268-11.084-10.058-16.553-10.005-7.792.076-14.067 3.722-18.558 10.036-4.018 5.647-6.29 13.099-4.674 19.995 2.2 9.38 10.578 15.408 20.006 13.007 7.845-1.997 9.503-11.71 4.528-17.328 2.795 3.158-3.35-3.907-1.61-2.15-.791-.616-1.581-1.233-2.37-1.85.618.308 1.106.75 1.46 1.33.478.64 1.777 2.458.656 1.112-.458-.55-.111-3.47-.091-.295-.002-.326.02-2.886-.092-1.242-.11 1.626.215-.933.31-1.29.094-.352 1.196-2.963.25-.986.33-.692.752-1.332 1.105-2.011.177-.342 1.268-2.129.176-.439.918-1.421-.843.31.38-.408 1.845-1.082 3.916-1.794 5.986-2.333 2.853-.74 9.014-.967 9.09-5.143M252.176 59.67c-1.24-5.309-6.025-10.798-10.84-13.388-1.174-.63-2.756-1.384-4.04-1.738-1.785-.493 3.785 1.706 2.73 1.234-4.248-1.902-7.931-2.719-12.622-1.64-5.92 1.363-9.99 6.572-11.766 12.115-1.653 5.162.01 10.115 2.196 14.713 3.523 7.41 13.504 9.733 20.454 6.77 7.946-3.388 10.911-11.264 9.483-19.522-.023-.137.595 5.068.424 2.693-.108-1.505-.287-3.537-.683-4.995-.347-1.27-1.113-3.049-1.722-4.214-2.936-3.842-3.394-4.439-1.372-1.79 1.305 1.444 2.194 3.136 2.667 5.073v8.132l.036-.223c-1.277 2.211-2.552 4.422-3.827 6.633 1.313-1.712-1.834 1.626-1.959 1.354-.029-.063.856-.509.99-.584 1.633-.92-3.336 1.148-1.453.641.545-.145 1.077-.354 1.621-.506 2.278-.64 4.322-1.383 6.385-2.57 2.838-1.632 4.025-5.076 3.298-8.189M217.723 82.079c1.398-6.288-4.321-12.166-9.912-13.809-3.593-1.056-7.03-.882-10.481.59-8.044 3.43-9.76 12.688-5.977 19.92 3.75 7.168 13.46 7.57 18.896 2.46-2.053 1.447-2.587 1.866-1.603 1.26a13.05 13.05 0 0 0 4.636-4.684c1.382-2.41 1.466-4.203 2.03-6.97-.505 2.478-.217 3.36-1.97 5.607-.8.975-.951 1.186-.457.634.743-.684.312-.358-1.293.978.323-.124.707-.396 1.01-.587a8.757 8.757 0 0 0 2.187-1.633c-1.398 1.057-1.735 1.33-1.013.816 1.791-.563 3.54-2.753 3.947-4.582M192.342 112.022a.502.502 0 0 0-.02.046 8.836 8.836 0 0 0-1.388 4.39 9.036 9.036 0 0 0 .21 4.709c.746 2.74 2.842 5.707 5.37 7.057 2.713 1.447 5.997 2.173 9.005 1.19 2.75-.898 5.706-2.682 6.984-5.426.102-.216.199-.434.295-.654 1.055-2.402 1.458-3.44 1.684-6.136.291-3.487-1.829-6.884-4.428-8.913a8.428 8.428 0 0 0-3.82-2.03 11.186 11.186 0 0 0-5.974 0l-.016.006c-1.81.714-3.554 1.502-4.954 2.917-1.756 1.774-2.761 4.056-3.087 6.513-.276 2.074-.04 3.947.766 5.877.86 2.059 2.486 4.487 4.593 5.425l.015.006-2.273-17.826a.476.476 0 0 0-.023.019l2.276-1.777c-.044.025-.09.047-.137.067l2.7-1.152c-.267.112-.54.214-.814.312l6.213 22.772.045-.016a11.67 11.67 0 0 0 5.166-3.041 11.851 11.851 0 0 0 3.01-5.22c1-3.663.165-7.357-2.095-10.312-2.231-2.92-5.477-4.662-9.194-4.662-3.84 0-8.394 2.187-10.109 5.859"/>
        <path fill="#FFF" d="M228.011 63.83c-12.811-1.19-22.792 13.69-26.85 24.191-2.362 6.11-3.58 12.596-4.127 19.118-.609 7.241.357 13.54 3.334 20.184 3.762 8.4 17.18 4.046 16.871-4.616-.357-10.001-1.413-19.504 1.473-29.144 1.365-4.56 2.889-8.666 5.241-12.805 2.453-4.316 5.285-8.164 7.2-12.763.897-2.155-1.304-3.995-3.142-4.166M260.481 64.786c-.542 2.022-.56 4.38-.029 6.382.314 1.188.944 2.284 1.42 3.42l-1.213-2.9c.922 2.392 1.617 4.94 3.004 7.112l-1.426-3.413.056.226v-7.725a15.458 15.458 0 0 0-.026 8.172c.464 1.977 1.362 3.698 2.691 5.165a11.398 11.398 0 0 0 4.218 3.912 14.851 14.851 0 0 0 7.589 2.075h.317l3.97-.539a11.212 11.212 0 0 0 5.077-2.7c2.467-1.925 4.638-4.676 5.35-7.835a18.135 18.135 0 0 0 0-8.02c-.462-1.963-1.352-3.673-2.673-5.13a11.334 11.334 0 0 0-4.188-3.886l-.265-.197c-1.726-1.11-3.59-1.71-5.59-1.802-1.998-.452-3.996-.362-5.996.27-3.759 1.23-6.911 3.509-8.985 6.982a.33.33 0 0 1-.04.062l8.595-6.678a20.45 20.45 0 0 0-.224.072l3.76-.51-.28-.036 3.722.506c-1.116-.193-2.168-.608-3.265-.879-1.412-.348-2.906-.664-4.343-.653-5.07.04-9.88 3.534-11.226 8.547"/>
        <path fill="#FFF" d="M240.507 76.881c9.729 2.696 19.947 4.921 28.486 10.582 3.397 2.252 5.897 5.026 7.748 8.81 1.848 3.783 2.897 10.4 4.003 15.344 1.898 8.482 15.9 8.968 17.46 0 2.711-15.584-5.005-30.564-18.459-38.453-11.746-6.887-26.714-7.636-39.238-2.785-2.922 1.132-3.403 5.56 0 6.502M260.14 160.671c3.55 1.76 4.866 2.186 8.879 2.43a16.086 16.086 0 0 0 8.22-2.248 16.45 16.45 0 0 0 5.842-5.903c.096-.202.19-.401.293-.6a16.116 16.116 0 0 0 2.17-8.106 16.12 16.12 0 0 0-2.17-8.107c-2.852-4.922-8.107-7.896-13.727-7.954-.21-.002-.42.001-.628.006l-4.33.589c-2.12.508-3.966 1.49-5.54 2.944a8.233 8.233 0 0 0-2.921 2.952c-1.44 1.59-2.412 3.455-2.916 5.596-.062.156-.105.312-.16.471l1.596-3.819a1.681 1.681 0 0 1-.166.331c-1.133 1.798-1.745 3.737-1.838 5.821-.462 2.08-.37 4.161.276 6.242l1.562 3.739a15.654 15.654 0 0 0 5.559 5.616M237.132 140.55a54.209 54.209 0 0 1-2.073-1.517l2.192 1.711c-1.534-1.235-2.944-2.189-4.524-3.254l2.632 2.055-.248-.31 3.455 5.99c-1.47-5.15-5.141-8.905-10.183-10.552-3.718-1.216-7.78-.319-11.133 1.471-3.968 2.119-6.32 6.328-6.897 10.663-1.065 8.003 4.344 15.2 12.27 16.277 3.983.54 7.49-.39 10.672-2.874 1.607-1.253 3.068-2.56 3.916-4.524l-2.1 2.748.248-.298-2.632 2.056c2.593-1.953 4.25-3.133 6.019-5.864.493-.764.92-1.572 1.344-2.375 2.225-4.204.825-8.753-2.958-11.403M164.001 268.454c1.06-.877 1.82-2.234 2.637-3.356l-1.892 2.473c.165-.201.347-.386.548-.552l-2.571 2.007a5.776 5.776 0 0 1 1.01-.61l-3.259 1.39c.121-.047.242-.091.364-.137l-17.68-13.607c.208 1.79.57 3.536.823 5.308-.172-1.302-.346-2.603-.519-3.905.093.974.045 1.939-.071 2.91l.55-4.146c-.464 2.542-1.414 4.664-1.291 7.419.197 4.387 1.704 8.616 4.826 11.77 2.857 2.888 7.546 5.062 11.65 4.876 4.26-.192 8.68-1.606 11.65-4.876 3.033-3.336 4.626-7.199 4.826-11.77.179-4.126-1.718-8.112-3.709-11.618-2.46-4.33-6.13-8.254-11.055-9.576-4.349-1.168-8.665-.216-12.177 2.526-3.161 2.469-5.977 6.796-5.503 11.082.476 4.318 1.342 8.474 4.596 11.65 1.576 1.537 3.553 2.864 5.692 3.46.77.213 2.3.381 3.094.405 2.925.09 5.302-1.333 7.461-3.123M202.914 256.048a8.418 8.418 0 0 1-.723-.493c.717.56 1.435 1.122 2.152 1.68a6.799 6.799 0 0 1-.961-.992l1.78 2.327a6.17 6.17 0 0 1-.531-.906l1.204 2.884a4.904 4.904 0 0 1-.28-.956c.15 1.118.298 2.237.447 3.357a4.024 4.024 0 0 1 .006-.979l-.465 3.498c.054-.258.123-.477.224-.72l-1.354 3.241c.075-.155.163-.303.265-.443l-2.147 2.805a4.67 4.67 0 0 1 .813-.8l-2.908 2.271.254-.172-17.638-2.299c.196.177.363.353.53.557-.78-1.023-1.562-2.044-2.344-3.066.14.197.252.386.36.602l-1.552-3.716c.612 1.467 1.153 2.964 1.866 4.384l-1.582-3.788c.123.297.205.586.261.904l-.57-4.293c.032.314.028.607-.01.92l.581-4.368c-.045.23-.102.434-.18.654l1.66-3.975a4.05 4.05 0 0 1-.327.59l2.608-3.41c-.148.186-.294.34-.47.499l3.418-2.668c-.2.151-.389.267-.611.382 1.362-.581 2.725-1.161 4.087-1.743a4.589 4.589 0 0 1-.748.237l19.6 8.058a3.076 3.076 0 0 1-.345-.614l1.77 4.24c-.026-.086-.052-.173-.08-.259l.632 4.741a1.145 1.145 0 0 1-.006-.462l-.636 4.78.061-.213-1.801 4.31c.633-1.35 1.607-3.32 1.961-4.773 1.132-4.639.607-9.791-1.807-13.956-1.126-2.11-2.665-3.805-4.616-5.081-1.732-1.601-3.764-2.682-6.097-3.242-4.59-1.056-9.74-.827-13.813 1.826-3.95 2.572-6.928 6.18-8.238 10.824-.932 3.3-.775 6.58-.069 9.874.363 1.695 1.077 3.318 1.948 4.823 1.562 2.697 4.506 5.917 7.39 7.173l4.146 1.767c2.307.73 4.614.836 6.92.314a8.574 8.574 0 0 0 4.381-1.198c2.15-.707 4.014-1.915 5.586-3.625 1.233-1.338 2.418-2.772 3.306-4.369.65-1.169 1.527-3.256 1.887-4.545.238-.848.3-2.003.396-2.714.35-2.646.341-4.776-.313-7.482a9.929 9.929 0 0 0-.146-.546c-.371-1.239-1.192-3.219-1.831-4.342-.792-1.392-1.977-2.85-3.07-4.012-1.129-1.2-2.549-2.202-3.974-3.052-2.644-1.577-5.59-2.177-8.62-2.27-1.683-.052-3.46.22-5.077.745l-3.476 1.483a11.05 11.05 0 0 0-4.084 3.787c-1.874 2.452-3.313 5.72-3.125 8.91.19 3.215.762 6.38 2.51 9.143 2.14 3.385 5.11 5.756 8.883 7.028 4.327 1.46 8.737.641 12.732-1.313 3.156-1.543 5.043-5.478 5.043-8.881 0-3.663-1.958-7.003-5.043-8.882"/>
        <path fill="#FFF" d="M232.516 268.553c.107-.251.255-.47.42-.686l-1.498 1.96a3.43 3.43 0 0 1 .494-.462l-2.189 1.707c1.184-.814 2.117-1.739 3.184-2.611l-2.44 1.904c.17-.116.33-.206.517-.293l-2.98 1.27c.196-.07.374-.11.58-.141l-3.429.466a2.06 2.06 0 0 1 .412.001l-3.509-.476c.14.01.274.042.404.097l-5.967-3.514.089.107-2.157-2.82c.046.06.085.122.119.188.75-5.862 1.498-11.726 2.246-17.59a2.835 2.835 0 0 1-.27.272l3.09-2.412c-.176.13-.383.214-.581.304l22.81 6.043c-1.747-2.521-3.458-4.662-6.176-6.27-3.65-2.158-9.027-3.072-13.118-1.734l-4.066 1.734c-1.984 1.081-3.576 2.558-4.777 4.43-1.504 1.661-2.52 3.61-3.047 5.85-.709 2.285-.81 4.57-.304 6.858.104 2.288.777 4.42 2.02 6.394l2.662 3.481c1.543 1.677 3.369 2.863 5.48 3.556 2.028 1.077 4.214 1.571 6.558 1.481 4.402-.198 8.969-1.66 12.038-5.037 1.933-2.127 3.865-4.906 4.411-7.764l.595-4.478c.086-2.319-.392-4.482-1.436-6.49-1.266-3.03-3.698-6.704-6.82-8.054-1.443-.623-2.83-1.487-4.36-1.837-1.36-.31-3.135-.633-4.55-.577-6.347.248-12.127 4.337-13.853 10.656-.36 1.313-.397 2.698-.564 4.048l1.846-6.895c-3.062 5.697-2.994 13.203 1.864 17.949 2.249 2.196 5.238 3.4 8.345 3.49 2.91.083 6.668-1.172 7.907-4.105M127.618 267.434a9.29 9.29 0 0 1 .074-.839l-.32 2.416c.109-.676.281-1.308.522-1.947l-.995 2.38a8.251 8.251 0 0 1 1.004-1.706l-1.674 2.19a7.92 7.92 0 0 1 .828-.82c-.755.59-1.51 1.18-2.268 1.77.322-.238.629-.425.984-.608l-2.797 1.193.373-.054c-1.061.145-2.122.289-3.184.432l.334-.018c-4.082-4.123-8.164-8.247-12.244-12.371l-.05.41.447-3.366a3.39 3.39 0 0 1-.17.701l1.32-3.162c-.179.313-.409.6-.627.886l2.15-2.812-.247.32 9.893-4.14-.414-.05 3.776.512a3.019 3.019 0 0 1-.688-.21c1.162.495 2.325.99 3.486 1.486-.2-.09-.388-.205-.559-.343l3.027 2.364c-1.17-.947-2.36-1.92-3.588-2.787l3.075 2.401a3.143 3.143 0 0 1-.492-.501c.8 1.048 1.603 2.096 2.404 3.144a5.748 5.748 0 0 1-.554-.965l1.578 3.779a7.666 7.666 0 0 1-.387-1.592c-.577-4.068-4.127-7.582-7.387-9.705-4.282-2.79-9.775-2.752-14.306-.82-4.018 1.713-6.801 4.526-8.497 8.585-1.007 1.935-1.468 4.021-1.384 6.257.009 2.931.74 5.664 2.194 8.196 1.119 1.524 2.183 3.199 3.591 4.474 2.349 2.13 4.77 3.64 7.784 4.616 4.463 1.445 9.896.853 13.795-1.858 3.14-2.183 6.152-5.175 7.036-9.091.614-2.73.658-5.774-.327-8.417-1.153-3.09-2.48-5.415-5.078-7.443-1.909-1.49-2.76-1.76-5.303-2.799-2.637-1.076-7.112-.265-9.434 1.248-2.578 1.679-4.993 4.25-5.628 7.393-.256 1.275-.381 2.6-.538 3.892l.417-3.145c-1.746 5.994.172 12.217 4.28 16.703 2.35 2.568 6.386 3.114 9.45 1.808 3.298-1.406 5.084-4.432 5.318-7.987"/>
        <g fill="#1A1A18">
            <path d="M141.017 40.893c-15.54-11.606-36.234-6.857-46.618 9.278-8.614 13.384-10.929 32.43-1.565 46.07 9.796 14.268 29.445 18.636 45.45 14.56 16.719-4.258 29.196-18.685 29.63-36.373.456-18.475-13.083-39.139-32.772-38.684-3.185.073-3.102 4.687 0 4.948 14.56 1.229 24.59 16.497 25.33 30.369.737 13.856-7.884 26.087-20.554 30.881-12.218 4.623-28.534 3.183-38.16-6.403-9.68-9.64-10.123-25.252-5.015-37.306 3.385-7.99 9.45-14.852 17.899-17.293 8.233-2.38 17.624-.404 25.843 1.231.792.158 1.16-.807.532-1.278"/>
            <path d="M134.781 56.391c-3.824-8.236-13.95-3.523-19.139.66-6.84 5.514-10.168 16.106-5.17 23.948 9.533 14.958 37.857 8.91 35.883-10.461-.804-7.89-7.676-18.174-16.318-18.337-1.99-.038-3.265 2.729-1.692 4.13 4.801 4.273 10.242 6.568 11.057 13.863.66 5.892-2.94 10.45-8.634 11.525-8.096 1.527-18.318-2.723-16.286-12.52 1.177-5.666 13.116-19.674 18.86-11.956.64.861 1.903.147 1.44-.852M84.77 14.686c1.146 4.335 4.052 8.313 4.335 12.84l.983-2.403C86.311 29 81.331 33.262 78.896 38.16c-1.201 2.417 1.387 5.765 3.957 4.005 4.557-3.121 8.088-8.294 11.984-12.238 1.245-1.262 1.335-3.555 0-4.805-3.415-3.2-5.762-7.27-8.216-11.226-.603-.973-2.155-.356-1.852.79"/>
            <path d="M65.946 32.507c1.997 1.467 3.9 3.022 5.939 4.44 2.131 1.483 3.308 3.23 4.993 5.096 1.507 1.668 4.96.457 4.694-1.967-.378-3.44-3.638-5.32-6.467-6.734-2.849-1.424-5.631-2.23-8.82-2.104-.702.028-.868.88-.34 1.269"/>
            <path d="M66.146 30.832c-6.856 1.53-10.518 11.719-10.97 17.913-.28 3.823.988 7.115 4.271 9.216 2.938 1.879 7.717 3.976 11.109 4.305 2.153.209 3.323-2.494 2.374-4.186-2.686-4.786-11.467-3.067-11.796-9.335-.254-4.849 2.233-13.44 5.58-16.926.417-.436-.006-1.112-.568-.987"/>
            <path d="M70.896 61.427a4.948 4.948 0 0 1 1.17-1.294c1.448-1.323-1.027-3.507-2.2-1.718-3.21 4.89-3.85 13.342-2.863 18.97l3.288-4.368c-4.414.23-10.76 1.676-14.05 4.884-4.704 4.584-1.45 11.559.549 16.613 1.727 4.369 4.563 8.603 9.57 9.068 4.768.443 11.188-2.578 14.245-6.164 1.743-2.044.11-5.388-2.675-4.65-6.216 1.648-11.477 8.43-15.193-.41-1.216-2.893-4.14-7.966-1.045-10.014 2.21-1.462 5.99-2.3 8.6-2.427 2.295-.112 3.769-2.108 3.286-4.367-1.177-5.516.37-11.479-1.152-16.796l-2.56 1.092.114 1.042c-.156.5.573.986.916.539"/>
            <path d="M76.454 96.817c2.371 4.492 6.383 7.911 8.753 12.46 2.839 5.445-2.501 10.697-5.115 15.218-1.76 3.045 2.71 6.847 4.993 3.897 4.016-5.19 9.747-13.18 6.192-19.864-2.56-4.815-8.475-12.174-14.18-12.846-.596-.07-.881.682-.643 1.135"/>
            <path d="M80.349 127.874c1.233 3.212 5.197 6.103 7.785 8.168 3.104 2.475 6.82 5.003 10.8 5.722 7.683 1.387 12.633-9.885 14.077-15.937.264-1.107.03-2.403-.836-3.198a47.972 47.972 0 0 0-.232-.215c-.708-.65-1.723-1.033-2.675-.716-5.18 1.729-3.74 12.718-9.86 13.695-2.954.47-7.438-2.647-9.95-3.977-2.647-1.403-5.21-3.616-7.951-4.714-.641-.257-1.407.526-1.158 1.172"/>
            <path d="M109.791 125.143c2.42.4 4.817.573 7.268.55 3.017-.03 7.047-.833 9.872.506 5.07 2.404 3.565 9.832 7.29 13.419 1.59 1.53 5.025.571 4.754-1.994-.543-5.144-3.564-13.85-8.597-16.165-6.27-2.886-14.36 1.098-20.587 2.16-.743.127-.748 1.4 0 1.524"/>
            <path d="M135.831 141.043c7.11-2.05 19.222 2.09 24.27-5.513 4.11-6.19-2.68-18.144-7.258-22.409-2.886-2.689-7.197 1.639-4.318 4.37 2.314 2.197 3.908 5.528 5.08 8.46 1.097 2.747 2.675 5.917-.365 7.635-5.55 3.138-12.441 2.548-18.079 5.847-.848.497-.286 1.886.67 1.61M86.418 15.032c5.235-3.506 11.971-6.507 18.371-6.643 3.968-.084 3.491 3.7 3.683 6.914.186 3.104.043 6.702 2.241 9.115 1.45 1.59 4.885.462 4.572-1.916-.577-4.379-.75-9.462-1.952-13.709-1.126-3.98-3.737-5.667-7.718-5.425-4.43.271-8.853 1.937-12.858 3.763-2.65 1.208-7.391 3.181-8.248 6.417-.28 1.057.938 2.134 1.909 1.484"/>
            <path d="M111.384 22.75c5.056.758 10.012 1.099 14.898 2.575 2.863.865 5.31 1.008 7.599-1.145 2.353-2.214 3.622-5.53 4.713-8.51.781-2.133 2.85-6.276 1.901-8.558-.765-1.839-2.549-2.33-4.116-1.1-1.409 1.108-1.589 3.615-2.11 5.24-.868 2.71-1.85 6.084-3.73 8.275-1.374 1.602-3.561.268-6.089.11-4.296-.27-8.61.99-12.85 1.49-.82.097-1.212 1.473-.216 1.622"/>
            <path d="M137.423 6.468c-1.638.088-2.093.26-1.365.518.17.077.346.145.525.203.375.332 1.276.384 1.774.536 1.548.474 3.103.878 4.666 1.298 3.344.901 6.858 1.739 10.006 3.224 3.777 1.783 3.315 3.919 1.928 7.64-1.161 3.114-2.97 6.29-2.247 9.715.433 2.054 3.06 2.01 4.077.54 3.938-5.692 8.888-16.997 1.475-21.784-5.834-3.765-15.641-5.847-22.5-4.797-1.723.264-1.48 2.864 0 3.289.047.09.091.18.137.269.522.73 1.812.33 1.524-.65"/>
            <path d="M154.79 28.149c-.614 1.217.11 1.898 1.023 2.787 2.621 2.558 6.224 3.997 8.876 6.628 4.581 4.546 7.354 9.005 14.118 5.763 2.214-1.06 5.142-3.432 7.65-2.212 2.1 1.022 3.224 4.246 3.884 6.285 1.64 5.053 2.178 10.644 1.848 15.942l2.983-3.018c-5.795.129-11.245 1.96-16.694 3.8-3.623 1.222-2.07 7.053 1.585 5.819 4.915-1.659 9.877-3.468 15.11-3.584 1.686-.037 2.879-1.356 2.981-3.017.523-8.419-.527-23.145-8.935-27.697-1.897-1.028-4.084-1.295-6.188-.87-2.743.552-5.894 3.58-8.534 3.672-2.589.09-5.456-4.091-7.874-5.36-1.438-.756-10.726-3.436-10.569-4.4.118-.721-.878-1.3-1.263-.538"/>
            <path d="M176.342 68.28c-.419 1.982-.697 4.022-1.049 6.02-.646 3.676-2.023 7.15-2.58 10.832-.201 1.338.124 2.796 1.406 3.495 2.576 1.406 5.362 2.414 7.983 3.736 2.946 1.487 6.714 2.736 4.79 6.54-2.833 5.6-9.117 8.161-9.828 14.99l4.333-2.516c-5.087-2.76-9.903-6.076-14.84-9.103-2.69-1.648-4.945 2.441-2.433 4.21 4.804 3.383 9.209 7.061 14.367 9.925 2.07 1.15 4.087-.349 4.332-2.516.42-3.686 5.388-6.95 7.554-9.675 2.127-2.677 3.893-6.072 3.134-9.632-1.424-6.672-11.648-9.464-17.035-11.616l2.245 2.985c.15-4.545 4.092-14.29-.014-18.307-.727-.712-2.136-.453-2.365.632"/>
            <path d="M152.775 114.898c5.353-.526 12.361-3.492 14.57-8.79 1.02-2.446-2.79-4.589-4.416-2.602-1.555 1.901-2.374 4.159-4.28 5.775-1.877 1.59-4.183 2.632-6.413 3.605-.96.42-.485 2.112.539 2.012M251.359 95.256c-5.618-7.1-14.352-2.403-18.064 4.524-4.356 8.128-.441 18.938 7.968 22.44 8.614 3.589 20.003-2.088 21.755-11.586 1.535-8.324-6.83-18.706-15.415-17.481-2.042.292-1.314 3.234.455 3.402 6.401.606 11.696 7.785 8.333 13.939-2.573 4.709-8.794 7.724-13.701 4.885-4.405-2.549-6.39-8.368-4.35-13.063 1.822-4.193 7.293-9.81 11.991-6.02.735.592 1.617-.297 1.028-1.04"/>
            <path d="M246.887 80.006c-12.103-1.64-23.214 5.238-27.816 16.614-4.731 11.697-2.428 26.788 7.943 34.65 9.713 7.362 23.783 6.561 34.094.905 11.668-6.4 17.683-22.26 14.411-35.092-3.32-13.018-20.295-23.837-33.16-18.566-1.789.734-1.833 4.062.507 3.793 12.766-1.467 26.946 8.242 26.375 21.98-.563 13.59-10.226 23.946-23.63 24.87-13.297.916-22.937-8.538-22.79-22.02.144-13.364 10.48-25.954 24.066-26.134.656-.01.61-.918 0-1M202.6 97.115c-.597 3.44-1.77 6.86-2.073 10.304-.18 2.06 2.55 3.649 4.217 2.448l.035-.025c1.712-1.235 1.964-4.798-.671-5.196-4.748-.72-8.484 1.161-12.626 3.317-.896.467-1.382 1.508-1.409 2.486-.154 5.478-.426 14.225 4.185 18.152 4.377 3.73 13.576.204 18.193-1.596 2.543-.991 2.52-5.658-.708-5.287-3.645.42-12.772 5.31-14.754 1.155-1.22-2.56-1.33-5.91-1.39-8.7-.01-.479-.185-1.416.003-1.858.404-.95-.808.681.597-.223 2.121-1.365 4.681-2.093 7.161-1.862l-2.425-4.278-.025.036h4.84c-1.34-2.773-1.36-5.681-1.687-8.673-.083-.766-1.304-1.112-1.463-.2"/>
            <path d="M210.427 125.262c.06 3.064 2.038 4.852 3.973 6.993 1.22 1.352 2.97 2.961 3.756 4.632 1.066 2.265.102 3.25-1.29 5.033-4.08 5.23-4.074 9.74 1.122 14.028 3.795 3.131 10.739 7.583 15.903 5.69 6.049-2.217 6.235-10.846 7.45-16.119.863-3.75-4.71-5.333-5.717-1.594-.823 3.055-1.277 11.983-5.257 11.691-2.189-.16-4.769-1.84-6.592-3.005-1.071-.685-2.5-1.497-3.256-2.564-.918-1.296-.754-.867-.477-2.249.434-2.16 3.12-3.913 3.97-6.018.78-1.933.813-3.9 0-5.85-2.28-5.473-9.18-6.005-11.931-11.122-.421-.783-1.672-.428-1.654.454"/>
            <path d="M237.356 144.436c3.884 2.279 8.099 3.958 12.715 3.512 1.478-.142 2.94-.606 4.328-1.124 1.806-.676 1.477.16 2.448 2.356 2.403 5.436 3.055 12.457 10.563 10.152 5.394-1.656 13.348-5.647 15.48-11.342 2.597-6.939-5.37-14.353-9.868-18.494-2.374-2.186-5.65.535-4.318 3.372 2.037 4.343 11.944 10.132 6.75 14.96-2.164 2.011-5.02 3.549-7.708 4.715-.821.356-2.447 1.229-3.36 1.17.966.774 1.155.698.567-.226-.282-.69-.58-1.375-.892-2.054-1.468-3.415-3.298-10.426-7.826-10.773-2.305-.176-4.427 1.488-6.547 2.103-3.554 1.032-8.33.638-11.983.37-.702-.051-.915.97-.349 1.303"/>
            <path d="M272.231 134.274c5.09-.508 7.752-4.152 10.366-8.207 2.192-3.399 3.447-4.224 7.419-3.192 2.415.628 4.717 1.58 7.162 2.112 1.201.261 2.55-.166 3.173-1.307 3.665-6.704 4.805-15.104 3.218-22.576-.326-1.535-1.91-2.074-3.258-1.872-5.24.788-10.443-1.042-15.63-.26-2.284.345-2.03 3.895 0 4.423 5.066 1.317 11.149 1.706 16.334 1.1l-2.553-1.967c1.054 6.016.024 12.958-2.963 18.282l3.173-1.307c-5.075-1.165-10.96-4.745-16.19-2.198-2.315 1.128-3.777 3.56-4.973 5.752-1.841 3.378-4.584 6.134-6.168 9.647-.289.64.033 1.655.89 1.57M191.933 87.362a138.327 138.327 0 0 0 12.862 8.15l-1.3-3.236c-1.304 4.256-3.554 9.153-2.958 13.686.349 2.656 4.12 3.681 4.944.677 1.168-4.266 2.322-8.56 3.474-12.841.435-1.614-.55-2.95-1.978-3.525-4.654-1.869-9.61-2.796-14.361-4.553-1.005-.372-1.453 1.093-.683 1.642"/>
            <path d="M193.095 87.14c1.477-1.132 2.43-2.205 3.456-3.78 1.278-1.962 2.698-5.78 4.788-6.943 4.697-2.615 8.731 5.191 12.973 5.721 1.56.195 2.316-1.568 2.117-2.811-.449-2.811-4.219-4.763-6.452-6.061-2.621-1.523-5.947-3.02-9.022-2.179-5.708 1.56-7.88 10.329-8.77 15.345-.082.468.433 1.073.91.708"/>
            <path d="M215.697 80.923c4.185-3.98 9.087-4.663 14.417-6.117 1.209-.33 1.996-1.473 2.037-2.706.177-5.335-1.856-10.117-3.497-15.083l-1.286 3.195c3.605-2.176 8.68-3.181 12.846-2.92 5.56.352 4.245 6.84 4.33 11.108.07 3.54 5.304 3.531 5.427 0 .198-5.654.68-14.279-6.07-16.176-5.917-1.663-14.125.032-19.355 3.102-1.031.607-1.66 2.014-1.285 3.195 1.413 4.449 3.373 8.833 3.344 13.58l2.035-2.707c-5.292 1.804-13.34 4.177-15.264 10.162-.447 1.39 1.357 2.285 2.321 1.367"/>
            <path d="M248.022 70.639c3.26-.198 8.809.467 11.218 3.122 1.509 1.663 3.832.582 4.534-1.212 1.273-3.255 2.642-8.186 5.529-10.42-1.603 1.24-1.266.689.599 1.602 1.16.568 2.19 1.266 3.241 2.018 1.32.941 2.594 1.945 3.908 2.895 1.54 1.113 3.112 2.218 4.478 3.55 1.448 1.412 1.85 1.717.738 3.39-1.904 2.864-5.28 4.918-7.683 7.346-2.508 2.533 1.38 6.468 3.888 3.934 3.195-3.227 8.98-6.666 10.066-11.392 1.117-4.859-4.761-8.535-8.043-10.878-3.184-2.274-9.223-8.212-13.5-7.047-4.416 1.203-7.281 9.706-8.454 13.543l1.896-1.917c-2.008.313-4.393-.811-6.432-1.005-2.17-.205-4.183-.14-6.224.67-.875.348-.863 1.868.24 1.8"/>
            <path d="M275.295 86.622c1.604-.012 2.842 4.782 3.185 5.901.43 1.405.744 2.858.954 4.314.086.6.11 1.214.221 1.81.049.256.64 2.802.512 1.596.318 2.97 4.431 3.906 5.365.735 1.229-4.17-.66-9.48-3.008-13.202-1.624-2.578-5.55-6.09-7.995-2.506-.39.571.13 1.357.766 1.352M120.898 131.703c-.52 8.587-.867 17.183-1.156 25.781-.273 8.082-1.514 16.847-.67 24.879.368 3.502 5.023 3.509 5.391 0 .846-8.032-.396-16.797-.668-24.879-.29-8.598-.637-17.194-1.157-25.781-.068-1.131-1.67-1.133-1.74 0"/>
            <path d="M121.445 182.1c3.009 7.65 10.183 13.761 15.749 19.574 6.485 6.774 12.823 13.799 19.798 20.06 3.17 2.847 7.462-1.492 4.647-4.702-6.187-7.058-13.13-13.471-19.824-20.034-5.745-5.631-11.783-12.891-19.343-15.936-.565-.228-1.252.467-1.027 1.038"/>
            <path d="M156.964 137.783c-2.022 8.483-1.833 17.671-2.107 26.355-.285 9.008-.344 18.023-.395 27.035-.1 18.147-1.433 36.986.804 55.002.42 3.383 4.79 3.39 5.212 0 2.236-18.017.903-36.855.802-55.002-.05-9.012-.109-18.028-.395-27.035-.274-8.693-.083-17.863-2.106-26.355-.216-.908-1.599-.909-1.815 0M188.666 141.173c-2.722 18.185-2.147 37.168-2.367 55.523-.113 9.338-.228 18.675-.28 28.015-.052 9.196-.522 18.482.393 27.639.415 4.167 6.94 4.157 6.461 0l-.374-3.254c-.426-3.708-5.286-3.717-5.714 0-.123 1.086-.248 2.17-.373 3.254-.478 4.15 6.045 4.174 6.461 0 .886-8.876.448-17.863.399-26.778-.055-9.626-.17-19.251-.286-28.876-.22-18.355.355-37.338-2.367-55.523-.145-.979-1.808-.98-1.953 0"/>
            <path d="M223.814 172.126c-11.37 10.06-23.23 19.64-33.304 31.087-2.43 2.761 1.495 6.81 4.04 4.088 10.43-11.15 22.24-21.183 30.348-34.327.434-.703-.516-1.352-1.084-.848M225.674 252.755c2.194-11.404 1.482-23.74 1.77-35.32.084-3.464-5.406-3.47-5.32 0 .287 11.582-.425 23.915 1.77 35.32.17.892 1.608.893 1.78 0"/>
            <path d="M263.808 176.229c-8.618 6.069-15.933 13.407-23.059 21.174-3.167 3.453-6.329 6.937-9.309 10.558-2.244 2.728-6.14 5.855-7.587 9.043-1.053 2.326.669 4.467 3.105 4.088 3.19-.497 5.424-4.54 7.224-6.93 2.996-3.98 6.156-7.816 9.231-11.731 6.734-8.571 13.55-17.298 21.47-24.791.724-.684-.237-2.001-1.075-1.411M89.59 152.162c-.8 6.965-1.26 13.946-1.658 20.946-.396 6.939-1.154 14.007-.561 20.946.345 4.039 5.869 4.047 6.215 0 .593-6.935-.166-14.011-.56-20.946-.4-7-.859-13.98-1.66-20.946-.133-1.152-1.642-1.155-1.776 0"/>
            <path d="M90.116 195.527c3.463 6.458 8.58 11.833 13.464 17.216 4.925 5.43 9.753 11.346 15.727 15.599 2.302 1.638 5.389-1.589 3.86-3.907-4.056-6.141-9.817-11.17-15.057-16.274-5.195-5.06-10.369-10.338-16.657-13.988-.864-.5-1.8.492-1.337 1.354M230.42 251.7c-1.308-3.695-4.698-4.911-8.236-3.476-4.072 1.652-7.361 5.568-7.832 10.047-1.262 12.033 20.139 16.903 24.159 5.47 2.42-6.888-3.244-12.694-9.432-14.303-3.851-1.001-5.135 4.468-1.605 5.89 2.363.951 6.559 3.86 4.277 6.761-2.3 2.923-8.672 1.13-10.728-1.263-3.417-3.976 4.616-13.037 8.182-8.41.448.578 1.452-.05 1.216-.716M195.228 254.675c.39-7.09-9.9-3.496-12.489-.12-5.444 7.102.96 16.831 8.212 19.284 8.174 2.765 18.407-2.593 17.949-12.075-.423-8.76-10.278-11.293-17.352-11.204-3.074.037-3.916 4.866-.745 5.57 3.085.686 8.226 1.355 10.369 3.978 2.99 3.66-1.773 7.494-5.197 7.861-4.202.45-8.958-2.541-9.904-6.858-.54-2.47.7-4.774 2.766-6.072.867-.545 4.978-2.384 4.974-.364-.002.928 1.367.917 1.417 0M159.524 251.125c-2.833-6.394-10.873.096-13.043 3.807-3.74 6.397.796 15.514 6.98 18.327 8.013 3.644 16.453-3.475 16.376-11.942-.084-9.2-8.993-11.37-16.298-12.134-3.321-.347-3.539 4.569-.744 5.572 2.772.994 7.532 1.494 9.451 3.95 2.769 3.543-1.258 9.546-5.381 8.894-3.791-.598-6.762-5.44-6.367-9.136.313-2.937 4.549-9.152 7.771-6.36.71.615 1.625-.14 1.255-.978M122.595 249.221c-.316-7.189-9.766-1.592-12.126 1.174-5.589 6.55-3.43 15.994 4.18 19.621 6.783 3.232 17.83 1.463 20.883-6.307 3.453-8.788-5.755-15.17-13.237-16.388-3.044-.497-5.476 3.763-2.27 5.449 2.671 1.405 8.559 3.255 9.219 6.693.823 4.296-5.815 5.684-8.73 5.509-4.625-.279-8.7-3.418-7.58-8.494.575-2.6 5.589-9.983 8.634-6.826.353.367 1.05.101 1.027-.43"/>
            <path d="M119.85 227.922c-1 2.686-1.087 5.708-1.383 8.547-.331 3.174-.952 6.535-.67 9.705a2.876 2.876 0 0 0 5.75 0c.28-3.151-.338-6.55-.67-9.705-.3-2.853-.38-5.85-1.383-8.547-.303-.815-1.34-.816-1.644 0"/>
        </g>
    </g>
</svg>
