<svg xmlns="http://www.w3.org/2000/svg" width="116" height="116" viewBox="0 0 116 116">
    <g fill="none" fill-rule="evenodd" transform="translate(2 2)">
        <path stroke="#C0C6D3" stroke-dasharray="0,11" stroke-linecap="round" stroke-width="3" d="M56 112c30.928 0 56-25.072 56-56S86.928 0 56 0 0 25.072 0 56s25.072 56 56 56z"/>
        <circle cx="56" cy="56" r="49" fill="#FFF"/>
        <g fill="#483E72" fill-rule="nonzero">
            <path d="M46.647 68.27s-2.283 1.272 1.627 1.702c4.738.518 7.159.444 12.378-.501 0 0 1.375.823 3.291 1.537-11.704 4.804-26.488-.278-17.296-2.738zM45.217 62s-2.562 1.816 1.351 2.205c5.06.5 9.057.54 15.974-.735 0 0 .955.93 2.458 1.437-14.148 3.964-29.907.312-19.784-2.907zM57.578 50.604C60.39 53.972 56.84 57 56.84 57s7.138-3.832 3.86-8.634C57.639 43.891 55.292 41.668 68 34c0 0-19.95 5.182-10.422 16.604z"/>
            <path d="M72.244 73.29s1.688 1.36-1.859 2.411c-6.744 1.996-28.075 2.598-33.999.08-2.128-.906 1.865-2.161 3.121-2.426 1.31-.278 2.058-.227 2.058-.227-2.369-1.63-15.31 3.201-6.572 4.587 23.825 3.774 43.43-1.7 37.251-4.425zM47.276 55.562s-10.85 2.518-3.842 3.434c2.96.387 8.856.298 14.352-.153 4.49-.368 8.997-1.156 8.997-1.156s-1.582.663-2.728 1.427c-11.019 2.833-32.301 1.513-26.173-1.382 5.18-2.449 9.394-2.17 9.394-2.17zm19.462 10.63c11.2-5.686 6.021-11.15 2.407-10.414-.884.18-1.28.336-1.28.336s.328-.504.956-.72c7.15-2.457 12.65 7.244-2.307 11.087 0-.001.172-.153.224-.289zM60.45 22s6.044 6.253-5.735 15.865c-9.446 7.713-2.154 12.11-.003 17.135-5.515-5.143-9.56-9.671-6.846-13.885C51.85 34.93 62.888 31.93 60.449 22z"/>
            <path d="M48.418 81.801C59.141 82.531 75.61 81.396 76 76c0 0-.75 2.045-8.862 3.668-9.153 1.833-20.444 1.619-27.138.444 0 0 1.372 1.207 8.418 1.69z"/>
        </g>
    </g>
</svg>
