<?xml version="1.0" encoding="UTF-8"?><svg xmlns="http://www.w3.org/2000/svg" xmlns:xlink="http://www.w3.org/1999/xlink" id="Слой_1" x="0px" y="0px" viewBox="0 0 260 59" style="enable-background:new 0 0 260 59;" xml:space="preserve"><style type="text/css">.st0{enable-background:new;}.st1{fill:#2C2E30;}.st2{filter:url(#Adobe_OpacityMaskFilter);}.st3{fill:#FFFFFF;}.st4{mask:url(#mask-2_1_);fill:#ECECEB;}.st5{fill:#827D9C;}.st6{fill:#483E72;}.st7{fill:#FEFEFE;}</style><g id="Provisionlab-backup"><g id="_x30_1-Homepage" transform="translate(-57.000000, -26.000000)"><g id="HEADER" transform="translate(57.000000, 25.000000)"><g id="LOGO"><g><g class="st0"><path class="st1" d="M91.6,24.9c0,3.5-2.4,5.4-5,5.7c-1,0.1-1.7,0.1-2.8,0.1h-2.1V37h-4.7V19.1h6.8c1.1,0,1.8,0,2.8,0.1 C89.2,19.5,91.6,21.3,91.6,24.9z M86.7,24.9c0-1.4-0.7-2.1-1.9-2.2c-0.3,0-0.8,0-1.2,0h-1.8v4.4h1.8c0.5,0,0.9,0,1.2,0 C86,26.9,86.7,26.2,86.7,24.9z"></path><path class="st1" d="M102.6,22.8v3.8c-3.5-0.2-4.8,1.1-4.8,5.3V37h-4.7V23.1h4.7v2.8l1-2c0.8-0.8,1.8-1.2,2.7-1.2 C102,22.8,102.3,22.8,102.6,22.8z"></path><path class="st1" d="M118.2,30.1c0,4.4-2.9,7.3-7.5,7.3s-7.5-2.9-7.5-7.3c0-4.5,2.9-7.3,7.5-7.3S118.2,25.6,118.2,30.1z M113.4,30.1c0-2.8-1-4.1-2.7-4.1s-2.7,1.4-2.7,4.1c0,2.8,1,4.1,2.7,4.1S113.4,32.8,113.4,30.1z"></path><path class="st1" d="M130.7,37l-6.5-17.9h5.1l4.3,14.3l4.3-14.3h5L136.4,37H130.7z"></path><path class="st1" d="M148.9,19.8c0,1.4-1,2.3-2.4,2.3s-2.4-0.9-2.4-2.3c0-1.4,1-2.3,2.4-2.3S148.9,18.4,148.9,19.8z M144.1,37 V23.1h4.7V37H144.1z"></path><path class="st1" d="M163.1,27.2h-4.6c-0.2-1-0.7-1.5-1.5-1.5c-0.6,0-1.1,0.4-1.1,1c0,0.8,0.6,1.3,3.3,2 c2.5,0.6,4.3,1.7,4.3,4.4c0,3-2.8,4.3-6.1,4.3c-3.8,0-6.3-1.6-6.7-4.7h4.6c0.3,1.1,1.1,1.8,2.1,1.8c0.8,0,1.5-0.3,1.5-1.1 c0-0.9-0.9-1.4-3.4-2c-2.7-0.6-4.2-1.8-4.2-4.2c0-2.8,2.4-4.5,6.1-4.5C160.8,22.8,162.8,24.6,163.1,27.2z"></path><path class="st1" d="M170.1,19.8c0,1.4-1,2.3-2.4,2.3s-2.4-0.9-2.4-2.3c0-1.4,1-2.3,2.4-2.3S170.1,18.4,170.1,19.8z M165.3,37 V23.1h4.7V37H165.3z"></path><path class="st1" d="M187,30.1c0,4.4-2.9,7.3-7.5,7.3c-4.6,0-7.5-2.9-7.5-7.3c0-4.5,2.9-7.3,7.5-7.3 C184,22.8,187,25.6,187,30.1z M182.2,30.1c0-2.8-1-4.1-2.7-4.1s-2.7,1.4-2.7,4.1c0,2.8,1,4.1,2.7,4.1S182.2,32.8,182.2,30.1z"></path><path class="st1" d="M203.1,29.1V37h-4.7v-7.1c0-0.4,0-1.2-0.1-1.9c-0.1-1.3-0.8-2.1-2.2-2.1c-1.4,0-2.4,1.4-2.4,4.5V37H189 V23.1h4.7v2.2l1.2-1.7c0.9-0.5,1.8-0.8,3.1-0.8c2.9,0,4.6,1.4,4.9,3.8C203,27.2,203.1,28,203.1,29.1z"></path><path class="st1" d="M224.7,37H211V19.1h4.7v14h9.1V37z"></path><path class="st1" d="M234.5,35l-0.6,1.5c-1,0.6-2.2,0.9-3.4,0.9c-2.3,0-4.4-1.4-4.4-4.1c0-3,2.8-4.8,7.5-4.8h0.9v-0.2 c0-0.3,0-0.6-0.1-1c-0.1-0.7-0.6-1.3-1.7-1.3c-1.1,0-1.7,0.7-1.8,1.9l-4.4,0c0-3.2,2.9-5.1,6.4-5.1c4.4,0,5.9,1.9,6.1,4.5 c0.1,0.7,0.1,1.5,0.1,2.4v3.9c0,1,0.1,2,0.3,3.5h-4.6L234.5,35z M234.4,32v-0.9c-2.1-0.2-3.6,0.4-3.6,1.8 c0,0.8,0.6,1.3,1.6,1.3C233.3,34.2,234.4,33.5,234.4,32z"></path><path class="st1" d="M257.3,29.7c0,4.9-3,7.6-6.6,7.6c-1.1,0-2.5-0.3-3.2-0.7l-0.9-1.5V37h-4.7V17.9h4.7v7.3l1-1.5 c0.8-0.6,2.1-0.9,3.5-0.9C254.9,22.8,257.3,25.6,257.3,29.7z M252.5,30c0-2.6-1.3-4.1-2.9-4.1c-1.7,0-3,1-3,4v0.6 c0,2.8,1.4,3.7,2.8,3.7C251.2,34.2,252.5,32.8,252.5,30z"></path></g><g><g id="Group-3" transform="translate(0.000000, 0.340300)"><g id="Clip-2"></g><defs><filter id="Adobe_OpacityMaskFilter" filterUnits="userSpaceOnUse" x="0" y="0.7" width="58.4" height="58.3"><feColorMatrix type="matrix" values="1 0 0 0 0 0 1 0 0 0 0 0 1 0 0 0 0 0 1 0"></feColorMatrix></filter></defs><mask maskUnits="userSpaceOnUse" x="0" y="0.7" width="58.4" height="58.3" id="mask-2_1_"><g class="st2"><polygon id="path-1_1_" class="st3" points="0,0.7 58.4,0.7 58.4,59 0,59 "></polygon></g></mask><path id="Fill-1" class="st4" d="M58.4,29.8c0-16.1-13.1-29.2-29.2-29.2C13.1,0.7,0,13.7,0,29.8C0,45.9,13.1,59,29.2,59 C45.3,59,58.4,45.9,58.4,29.8"></path></g><path id="Fill-4" class="st5" d="M48.6,30.2c0-10.7-8.7-19.5-19.5-19.5S9.7,19.4,9.7,30.2c0,10.7,8.7,19.4,19.5,19.4 S48.6,40.9,48.6,30.2"></path><path id="Fill-6" class="st6" d="M42.1,30.2c0-7.2-5.8-13-13-13c-7.2,0-13,5.8-13,13s5.8,13,13,13 C36.3,43.1,42.1,37.3,42.1,30.2"></path><path id="Fill-8" class="st7" d="M35.7,30.2c0-3.6-2.9-6.5-6.5-6.5c-3.6,0-6.5,2.9-6.5,6.5c0,3.6,2.9,6.5,6.5,6.5 C32.8,36.7,35.7,33.8,35.7,30.2"></path><path id="Fill-10" class="st7" d="M17.2,25.2l3,1.2c1-2.4,2.9-4.3,5.3-5.3l-1.2-3C21,19.5,18.5,22,17.2,25.2"></path><path id="Fill-12" class="st7" d="M11.2,22.8l3,1.2c1.6-4,4.8-7.2,8.8-8.8l-1.2-3C17,14.2,13.2,18,11.2,22.8"></path><path id="Fill-14" class="st7" d="M41.2,35.1l-3-1.2c-1,2.4-2.9,4.3-5.3,5.3l1.2,3C37.3,40.8,39.8,38.3,41.2,35.1"></path></g></g></g></g></g></g></svg>