<svg xmlns="http://www.w3.org/2000/svg" xmlns:xlink="http://www.w3.org/1999/xlink" width="340" height="60" >
    <defs>
        <path id="a" d="M0 .66h58.352V59H0z"/>
    </defs>
    <g fill="none" fill-rule="evenodd">
        <text fill="#2C2E30" font-family="Heebo" font-size="32" font-weight="900">
            <tspan x="70" y="43">Pro Vision Lab</tspan>
        </text>
        <g transform="translate(0 .34)">
            <mask id="b" fill="#fff">
                <use xlink:href="#a"/>
            </mask>
            <path fill="#ECECEB" d="M58.352 29.836C58.352 13.723 45.29.66 29.177.66 13.063.66 0 13.723 0 29.836 0 45.938 13.063 59 29.177 59c16.113 0 29.175-13.062 29.175-29.164" mask="url(#b)"/>
        </g>
        <path fill="#827D9C" d="M48.628 30.176c0-10.742-8.71-19.45-19.451-19.45-10.742 0-19.451 8.708-19.451 19.45 0 10.73 8.709 19.438 19.45 19.438 10.743 0 19.452-8.708 19.452-19.438"/>
        <path fill="#483E72" d="M42.143 30.176c0-7.16-5.806-12.967-12.966-12.967-7.162 0-12.968 5.806-12.968 12.967 0 7.161 5.806 12.955 12.968 12.955 7.16 0 12.966-5.794 12.966-12.955"/>
        <path fill="#FEFEFE" d="M35.66 30.176a6.484 6.484 0 1 0-12.967.001 6.484 6.484 0 0 0 12.967 0M17.19 25.233l2.998 1.236a9.743 9.743 0 0 1 5.282-5.282l-1.236-2.997a13 13 0 0 0-7.043 7.043M11.194 22.76l2.997 1.236a16.258 16.258 0 0 1 8.806-8.806l-1.236-2.997A19.513 19.513 0 0 0 11.194 22.76M41.163 35.12l-2.997-1.237a9.731 9.731 0 0 1-5.282 5.28l1.234 2.987a12.976 12.976 0 0 0 7.045-7.03"/>
    </g>
</svg>
