<svg xmlns="http://www.w3.org/2000/svg" width="81" height="75" viewBox="0 0 81 75">
    <g fill="none" fill-rule="nonzero">
        <path fill="#6BB725" d="M20 52.5c0 5.247-4.477 9.5-10 9.5S0 57.747 0 52.5 4.477 43 10 43s10 4.253 10 9.5z"/>
        <path fill="#5A6470" d="M54.429 75H26.57C23.495 75 21 72.512 21 69.444V5.556C21 2.488 23.495 0 26.571 0H54.43C57.505 0 60 2.488 60 5.556v63.888C60 72.512 57.505 75 54.429 75z"/>
        <path fill="#FFF" d="M55 58H27V11h28z"/>
        <g fill="#AABECE">
            <path d="M43.333 66.234c0 1.528-1.268 2.766-2.833 2.766-1.565 0-2.833-1.238-2.833-2.766 0-1.527 1.268-2.766 2.833-2.766 1.565 0 2.833 1.239 2.833 2.766zM37.667 4H49v2.766H37.667zM32 4h2.833v2.766H32z"/>
        </g>
        <path fill="#DDD8F9" d="M81 65H66V54h15z"/>
        <path fill="#B3AECF" d="M72.818 60L66 54h15z"/>
        <path fill="#F4F4E6" d="M7 49v8l8-4z"/>
        <path fill="#DDD8F9" d="M0 18.91h10.91L15 23V8H0z"/>
        <path fill="#483E72" d="M4 12h7v3H4z"/>
        <path fill="#827D9C" d="M75 31h-2.75c0-9.995-7.913-10.111-8.25-10.111V18c.11 0 11 .145 11 13z"/>
        <path fill="#827D9C" d="M69.981 31h-2.959a4.555 4.555 0 0 0-1.153-3.5 2.91 2.91 0 0 0-1.742-.7L64 24a5.826 5.826 0 0 1 3.91 1.477c1.472 1.488 2.221 3.49 2.071 5.523zM81 31h-2.833c0-4.784-1.362-8.536-4.046-11.156A15.995 15.995 0 0 0 64 15.769V13c4.514.138 8.823 1.874 12.125 4.885C79.36 21.042 81 25.462 81 31z"/>
        <path fill="#B3AECF" d="M32 18h8v8h-8z"/>
        <path fill="#DDD8F9" d="M41 27h8v8h-8z"/>
        <path fill="#827D9C" d="M32 35h8v8h-8z"/>
        <path fill="#B3AECF" d="M41 43h8v8h-8z"/>
        <path fill="#C5D0E6" d="M47 15h3v3h-3zM30 47h3v3h-3z"/>
    </g>
</svg>
