<svg xmlns="http://www.w3.org/2000/svg" width="116" height="116" viewBox="0 0 116 116">
    <g fill="none" fill-rule="evenodd" transform="translate(2 2)">
        <path stroke="#C0C6D3" stroke-dasharray="0,11" stroke-linecap="round" stroke-width="3" d="M56 112c30.928 0 56-25.072 56-56S86.928 0 56 0 0 25.072 0 56s25.072 56 56 56z"/>
        <circle cx="56" cy="56" r="49" fill="#FFF"/>
        <g fill="#483E72" fill-rule="nonzero">
            <path d="M80.183 36H32.817a.818.818 0 0 0-.817.82v39.36c0 .453.366.82.817.82h47.366a.818.818 0 0 0 .817-.82V36.82a.818.818 0 0 0-.817-.82zm-.816 39.36H33.633V37.64h45.734v37.72z"/>
            <path d="M36.083 52.4h3.267a.818.818 0 0 0 .817-.82V44.2h7.35a.818.818 0 0 0 .816-.82V40.1a.818.818 0 0 0-.816-.82H36.083a.818.818 0 0 0-.816.82v11.48c0 .453.365.82.816.82zm.817-11.48h9.8v1.64h-7.35a.818.818 0 0 0-.817.82v7.38H36.9v-9.84zM36.083 73.72h11.434a.818.818 0 0 0 .816-.82v-3.28a.818.818 0 0 0-.816-.82h-7.35v-7.38a.818.818 0 0 0-.817-.82h-3.267a.818.818 0 0 0-.816.82V72.9c0 .453.365.82.816.82zm.817-11.48h1.633v7.38c0 .453.366.82.817.82h7.35v1.64h-9.8v-9.84zM65.483 44.2h7.35v7.38c0 .453.366.82.817.82h3.267a.818.818 0 0 0 .816-.82V40.1a.818.818 0 0 0-.816-.82H65.483a.818.818 0 0 0-.816.82v3.28c0 .453.365.82.816.82zm.817-3.28h9.8v9.84h-1.633v-7.38a.818.818 0 0 0-.817-.82H66.3v-1.64zM65.483 73.72h11.434a.818.818 0 0 0 .816-.82V61.42a.818.818 0 0 0-.816-.82H73.65a.818.818 0 0 0-.817.82v7.38h-7.35a.818.818 0 0 0-.816.82v3.28c0 .453.365.82.816.82zm.817-3.28h7.35a.818.818 0 0 0 .817-.82v-7.38H76.1v9.84h-9.8v-1.64z"/>
        </g>
    </g>
</svg>
