<svg xmlns="http://www.w3.org/2000/svg" width="116" height="116" viewBox="0 0 116 116">
    <g fill="none" fill-rule="evenodd" transform="translate(2 2)">
        <path stroke="#C0C6D3" stroke-dasharray="0,11" stroke-linecap="round" stroke-width="3" d="M56 112c30.928 0 56-25.072 56-56S86.928 0 56 0 0 25.072 0 56s25.072 56 56 56z"/>
        <circle cx="56" cy="56" r="49" fill="#FFF"/>
        <g fill="#483E72" fill-rule="nonzero">
            <path d="M55.5 64a8.5 8.5 0 1 0 0-17 8.5 8.5 0 0 0-8.5 8.5 8.51 8.51 0 0 0 8.5 8.5zm0-13.222a4.722 4.722 0 1 1 0 9.445 4.722 4.722 0 0 1 0-9.445z"/>
            <path d="M55.586 46.267c-5.047 0-9.138 4.178-9.138 9.333s4.091 9.333 9.138 9.333 9.138-4.178 9.138-9.333c-.005-5.152-4.093-9.328-9.138-9.333zm0 16.8c-4.037 0-7.31-3.343-7.31-7.467s3.273-7.467 7.31-7.467c4.038 0 7.31 3.343 7.31 7.467-.004 4.122-3.274 7.462-7.31 7.467z"/>
            <path d="M55.586 50c-3.028 0-5.483 2.507-5.483 5.6 0 3.093 2.455 5.6 5.483 5.6 3.028 0 5.483-2.507 5.483-5.6-.003-3.092-2.456-5.597-5.483-5.6zm0 9.333c-2.018 0-3.655-1.671-3.655-3.733 0-2.062 1.637-3.733 3.655-3.733 2.019 0 3.655 1.671 3.655 3.733 0 2.062-1.636 3.733-3.655 3.733zM69.293 23.867c6.56 0 11.88 5.432 11.88 12.133 0 .515.409.933.913.933A.924.924 0 0 0 83 36c0-7.732-6.137-14-13.707-14a.924.924 0 0 0-.914.933c0 .516.41.934.914.934z"/>
            <path d="M69.293 27.6a8.131 8.131 0 0 1 5.817 2.46A8.485 8.485 0 0 1 77.517 36c0 .515.41.933.914.933a.924.924 0 0 0 .914-.933 10.372 10.372 0 0 0-2.943-7.261 9.94 9.94 0 0 0-7.109-3.006.924.924 0 0 0-.914.934c0 .515.41.933.914.933z"/>
            <path d="M69.293 31.333h.025c2.516.008 4.55 2.097 4.544 4.667 0 .515.41.933.914.933A.924.924 0 0 0 75.69 36c.004-3.6-2.846-6.522-6.37-6.533h-.027a.924.924 0 0 0-.914.933c0 .515.41.933.914.933zM78.431 66.8h-6.013a20.538 20.538 0 0 0 3.272-11.2c0-11.34-9-20.533-20.104-20.533-11.103 0-20.103 9.193-20.103 20.533a20.538 20.538 0 0 0 3.271 11.2h-6.013C31.227 66.8 30 68.054 30 69.6v5.6c0 1.546 1.227 2.8 2.741 2.8h45.69c1.514 0 2.741-1.254 2.741-2.8v-5.6c0-1.546-1.227-2.8-2.741-2.8zm-41.12-11.2c0-10.31 8.182-18.667 18.275-18.667 10.094 0 18.276 8.357 18.276 18.667a18.643 18.643 0 0 1-3.69 11.2H41a18.643 18.643 0 0 1-3.69-11.2zm42.034 19.6c0 .515-.41.933-.914.933h-45.69a.924.924 0 0 1-.913-.933v-5.6c0-.515.409-.933.913-.933h45.69c.505 0 .914.418.914.933v5.6z"/>
            <path d="M65.638 73.333h3.655V75.2h-3.655zM70.207 73.333h3.655V75.2h-3.655zM74.776 73.333h3.655V75.2h-3.655zM70.585 37.32a1.895 1.895 0 0 0-.022-2.617 1.8 1.8 0 0 0-2.562-.023 1.895 1.895 0 0 0 .022 2.617 1.8 1.8 0 0 0 2.562.023z"/>
        </g>
    </g>
</svg>
